<svg width="103" height="80" viewBox="0 0 103 80" fill="none" xmlns="http://www.w3.org/2000/svg">
<path fill-rule="evenodd" clip-rule="evenodd" d="M9.65689 28.4004L3.73028 12.6367C-2.31422 22.6973 -1.01345 36.022 7.63664 44.6762L16.5875 53.6271L9.65689 28.4004Z" fill="#2EC38B"/>
<path fill-rule="evenodd" clip-rule="evenodd" d="M3.73047 12.6368L9.65708 28.4005L24.4533 5.8322L13.4171 3.27539C11.3399 4.42576 9.39286 5.88098 7.63683 7.63702C6.10436 9.17355 4.8036 10.8523 3.73047 12.6368Z" fill="#2EC38B"/>
<path fill-rule="evenodd" clip-rule="evenodd" d="M13.4199 3.27876L24.4561 5.83558L39.9799 3.91695C31.9152 -1.08287 21.6717 -1.29424 13.4199 3.27876Z" fill="#2EC38B"/>
<path fill-rule="evenodd" clip-rule="evenodd" d="M24.457 5.83156L38.8833 26.1763L70.6992 8.05099L59.6387 5.60799C58.8501 6.23398 58.0859 6.90875 57.3583 7.64043L51.017 13.9817L44.6758 7.64043C43.2287 6.19333 41.6515 4.95354 39.9809 3.91699L24.457 5.83156Z" fill="#2EC38B"/>
<path fill-rule="evenodd" clip-rule="evenodd" d="M38.8828 26.1809L24.4565 5.83203L9.65625 28.4003L38.8828 26.1809Z" fill="#2EC38B"/>
<path fill-rule="evenodd" clip-rule="evenodd" d="M23.0907 38.229C23.0907 34.7901 25.8792 31.9975 29.3222 31.9975C32.7611 31.9975 35.5537 34.786 35.5537 38.229C35.5537 41.672 32.7652 44.4605 29.3222 44.4605C25.8792 44.4605 23.0907 41.672 23.0907 38.229ZM38.8828 26.1807L9.65625 28.4001L24.9524 47.8222C29.7084 45.0336 37.3707 47.314 37.3707 54.6634V74.4106L40.9234 77.9633L38.8828 26.1807Z" fill="#2EC38B"/>
<path fill-rule="evenodd" clip-rule="evenodd" d="M24.9583 47.8224L9.66211 28.4004L16.5927 53.6271L21.2674 58.3017V54.6637C21.2674 51.3548 22.8161 49.0744 24.9583 47.8224Z" fill="#2EC38B"/>
<path fill-rule="evenodd" clip-rule="evenodd" d="M38.8828 26.1807L40.9315 77.9674L42.964 79.9998V44.1394C42.964 33.4812 59.0772 33.4812 59.0772 44.1394V48.7246L63.4917 30.8065L56.9675 29.5789C56.1708 32.1032 53.8132 33.9365 51.0246 33.9365C47.5857 33.9365 44.7932 31.148 44.7932 27.705C44.7932 27.5668 44.7972 27.4286 44.8054 27.2904L38.8828 26.1807Z" fill="#2EC38B"/>
<path fill-rule="evenodd" clip-rule="evenodd" d="M51.0165 21.4739C54.4554 21.4739 57.248 24.2624 57.248 27.7053C57.248 28.3557 57.1464 28.9858 56.9594 29.5793L63.4835 30.8069L70.6987 8.05566L38.8828 26.181L44.8013 27.2948C45.0127 24.0429 47.7158 21.4739 51.0165 21.4739Z" fill="#2EC38B"/>
<path fill-rule="evenodd" clip-rule="evenodd" d="M63.4848 30.8027L59.0703 48.7208V79.9351C59.424 79.6221 59.7654 79.301 60.0947 78.9717L64.6555 74.4109V54.6596C64.6555 51.2044 66.3505 48.8671 68.6431 47.6517L63.4848 30.8027Z" fill="#2EC38B"/>
<path fill-rule="evenodd" clip-rule="evenodd" d="M78.9433 38.2293C78.9433 41.6682 76.1548 44.4608 72.7118 44.4608C69.2729 44.4608 66.4804 41.6723 66.4804 38.2293C66.4804 36.1684 67.4803 34.3433 69.0209 33.2091L63.4805 30.8027L68.6388 47.6558C73.411 45.1274 80.7644 47.4647 80.7644 54.6636V58.3017L83.2846 55.7815C86.4715 52.5946 91.0851 48.4078 94.6704 44.351L78.8986 37.4976C78.9271 37.7415 78.9433 37.9854 78.9433 38.2293Z" fill="#2EC38B"/>
<path fill-rule="evenodd" clip-rule="evenodd" d="M78.8984 37.5018L94.6702 44.3552L86.9754 15.6367L63.4844 30.8069L69.0248 33.2133C70.0573 32.4532 71.3337 32.002 72.7117 32.002C75.9067 32.002 78.5367 34.4043 78.8984 37.5018Z" fill="#2EC38B"/>
<path fill-rule="evenodd" clip-rule="evenodd" d="M63.4844 30.803L86.9754 15.6368L70.6996 8.05176L63.4844 30.803Z" fill="#2EC38B"/>
<path fill-rule="evenodd" clip-rule="evenodd" d="M70.6992 8.05185L86.975 15.6369L100.121 16.2833C98.8486 13.133 96.9381 10.1819 94.3935 7.64129C93.9504 7.19822 93.4992 6.77547 93.0317 6.37305L70.6992 8.05185Z" fill="#2EC38B"/>
<path fill-rule="evenodd" clip-rule="evenodd" d="M70.6991 8.0515L93.0357 6.3727C83.5441 -1.86277 69.4186 -2.11479 59.6426 5.6085L70.6991 8.0515Z" fill="#2EC38B"/>
<path fill-rule="evenodd" clip-rule="evenodd" d="M100.12 16.283L86.9746 15.6367L94.6694 44.3552C96.4621 42.3268 97.9945 40.3309 98.962 38.5058C102.624 31.6321 103.011 23.4332 100.12 16.283Z" fill="#2EC38B"/>
<path fill-rule="evenodd" clip-rule="evenodd" d="M9.65689 28.4004L3.73028 12.6367C-2.31422 22.6973 -1.01345 36.022 7.63664 44.6762L16.5875 53.6271L9.65689 28.4004Z" fill="#2EC38B"/>
<path fill-rule="evenodd" clip-rule="evenodd" d="M3.73047 12.6368L9.65708 28.4005L24.4533 5.8322L13.4171 3.27539C11.3399 4.42576 9.39286 5.88098 7.63683 7.63702C6.10436 9.17355 4.8036 10.8523 3.73047 12.6368Z" fill="#2EC38B"/>
<path fill-rule="evenodd" clip-rule="evenodd" d="M13.4199 3.27876L24.4561 5.83558L39.9799 3.91695C31.9152 -1.08287 21.6717 -1.29424 13.4199 3.27876Z" fill="#2EC38B"/>
<path fill-rule="evenodd" clip-rule="evenodd" d="M24.457 5.83156L38.8833 26.1763L70.6992 8.05099L59.6387 5.60799C58.8501 6.23398 58.0859 6.90875 57.3583 7.64043L51.017 13.9817L44.6758 7.64043C43.2287 6.19333 41.6515 4.95354 39.9809 3.91699L24.457 5.83156Z" fill="#2EC38B"/>
<path fill-rule="evenodd" clip-rule="evenodd" d="M38.8828 26.1809L24.4565 5.83203L9.65625 28.4003L38.8828 26.1809Z" fill="#2EC38B"/>
<path fill-rule="evenodd" clip-rule="evenodd" d="M23.0907 38.229C23.0907 34.7901 25.8792 31.9975 29.3222 31.9975C32.7611 31.9975 35.5537 34.786 35.5537 38.229C35.5537 41.672 32.7652 44.4605 29.3222 44.4605C25.8792 44.4605 23.0907 41.672 23.0907 38.229ZM38.8828 26.1807L9.65625 28.4001L24.9524 47.8222C29.7084 45.0336 37.3707 47.314 37.3707 54.6634V74.4106L40.9234 77.9633L38.8828 26.1807Z" fill="#2EC38B"/>
<path fill-rule="evenodd" clip-rule="evenodd" d="M24.9583 47.8224L9.66211 28.4004L16.5927 53.6271L21.2674 58.3017V54.6637C21.2674 51.3548 22.8161 49.0744 24.9583 47.8224Z" fill="#2EC38B"/>
<path fill-rule="evenodd" clip-rule="evenodd" d="M38.8828 26.1807L40.9315 77.9674L42.964 79.9998V44.1394C42.964 33.4812 59.0772 33.4812 59.0772 44.1394V48.7246L63.4917 30.8065L56.9675 29.5789C56.1708 32.1032 53.8132 33.9365 51.0246 33.9365C47.5857 33.9365 44.7932 31.148 44.7932 27.705C44.7932 27.5668 44.7972 27.4286 44.8054 27.2904L38.8828 26.1807Z" fill="#2EC38B"/>
<path fill-rule="evenodd" clip-rule="evenodd" d="M51.0165 21.4739C54.4554 21.4739 57.248 24.2624 57.248 27.7053C57.248 28.3557 57.1464 28.9858 56.9594 29.5793L63.4835 30.8069L70.6987 8.05566L38.8828 26.181L44.8013 27.2948C45.0127 24.0429 47.7158 21.4739 51.0165 21.4739Z" fill="#2EC38B"/>
<path fill-rule="evenodd" clip-rule="evenodd" d="M63.4848 30.8027L59.0703 48.7208V79.9351C59.424 79.6221 59.7654 79.301 60.0947 78.9717L64.6555 74.4109V54.6596C64.6555 51.2044 66.3505 48.8671 68.6431 47.6517L63.4848 30.8027Z" fill="#2EC38B"/>
<path fill-rule="evenodd" clip-rule="evenodd" d="M78.9433 38.2293C78.9433 41.6682 76.1548 44.4608 72.7118 44.4608C69.2729 44.4608 66.4804 41.6723 66.4804 38.2293C66.4804 36.1684 67.4803 34.3433 69.0209 33.2091L63.4805 30.8027L68.6388 47.6558C73.411 45.1274 80.7644 47.4647 80.7644 54.6636V58.3017L83.2846 55.7815C86.4715 52.5946 91.0851 48.4078 94.6704 44.351L78.8986 37.4976C78.9271 37.7415 78.9433 37.9854 78.9433 38.2293Z" fill="#2EC38B"/>
<path fill-rule="evenodd" clip-rule="evenodd" d="M78.8984 37.5018L94.6702 44.3552L86.9754 15.6367L63.4844 30.8069L69.0248 33.2133C70.0573 32.4532 71.3337 32.002 72.7117 32.002C75.9067 32.002 78.5367 34.4043 78.8984 37.5018Z" fill="#2EC38B"/>
<path fill-rule="evenodd" clip-rule="evenodd" d="M63.4844 30.803L86.9754 15.6368L70.6996 8.05176L63.4844 30.803Z" fill="#2EC38B"/>
<path fill-rule="evenodd" clip-rule="evenodd" d="M70.6992 8.05185L86.975 15.6369L100.121 16.2833C98.8486 13.133 96.9381 10.1819 94.3935 7.64129C93.9504 7.19822 93.4992 6.77547 93.0317 6.37305L70.6992 8.05185Z" fill="#2EC38B"/>
<path fill-rule="evenodd" clip-rule="evenodd" d="M70.6991 8.0515L93.0357 6.3727C83.5441 -1.86277 69.4186 -2.11479 59.6426 5.6085L70.6991 8.0515Z" fill="#2EC38B"/>
<path fill-rule="evenodd" clip-rule="evenodd" d="M100.12 16.283L86.9746 15.6367L94.6694 44.3552C96.4621 42.3268 97.9945 40.3309 98.962 38.5058C102.624 31.6321 103.011 23.4332 100.12 16.283Z" fill="#2EC38B"/>
</svg>
