<svg width="442" height="311" viewBox="0 0 442 311" fill="none" xmlns="http://www.w3.org/2000/svg">
<path fill-rule="evenodd" clip-rule="evenodd" d="M105.297 80.278L88.5442 35.7197C71.4585 64.1575 75.1353 101.822 99.5861 126.284L124.887 151.585L105.297 80.278Z" fill="#2EC38B"/>
<path fill-rule="evenodd" clip-rule="evenodd" d="M88.5449 35.7193L105.297 80.2775L147.121 16.485L115.926 9.25781C110.054 12.5095 104.55 16.6229 99.5868 21.5866C95.2551 25.9298 91.5783 30.6752 88.5449 35.7193Z" fill="#2EC38B"/>
<path fill-rule="evenodd" clip-rule="evenodd" d="M115.936 9.26903L147.131 16.4962L191.011 11.073C168.215 -3.05974 139.26 -3.65722 115.936 9.26903Z" fill="#2EC38B"/>
<path fill-rule="evenodd" clip-rule="evenodd" d="M147.131 16.485L187.909 73.9925L277.841 22.7586L246.577 15.8531C244.348 17.6226 242.188 19.5299 240.131 21.5981L222.207 39.5225L204.282 21.5981C200.192 17.5077 195.734 14.0032 191.011 11.0732L147.131 16.485Z" fill="#2EC38B"/>
<path fill-rule="evenodd" clip-rule="evenodd" d="M187.91 74.0043L147.132 16.4854L105.297 80.2779L187.91 74.0043Z" fill="#2EC38B"/>
<path fill-rule="evenodd" clip-rule="evenodd" d="M143.271 108.06C143.271 98.3397 151.153 90.4461 160.886 90.4461C170.606 90.4461 178.5 98.3282 178.5 108.06C178.5 117.792 170.618 125.674 160.886 125.674C151.153 125.674 143.271 117.792 143.271 108.06ZM187.91 74.0039L105.297 80.2775L148.534 135.177C161.977 127.295 183.636 133.74 183.636 154.514V210.333L193.678 220.375L187.91 74.0039Z" fill="#2EC38B"/>
<path fill-rule="evenodd" clip-rule="evenodd" d="M148.545 135.177L105.309 80.2773L124.899 151.584L138.113 164.798V154.514C138.113 145.161 142.49 138.716 148.545 135.177Z" fill="#2EC38B"/>
<path fill-rule="evenodd" clip-rule="evenodd" d="M187.91 74.0039L193.701 220.387L199.446 226.132V124.767C199.446 94.64 244.992 94.64 244.992 124.767V137.727L257.471 87.0795L239.029 83.6096C236.777 90.7448 230.113 95.9268 222.231 95.9268C212.51 95.9268 204.617 88.0447 204.617 78.3127C204.617 77.922 204.628 77.5314 204.651 77.1407L187.91 74.0039Z" fill="#2EC38B"/>
<path fill-rule="evenodd" clip-rule="evenodd" d="M222.208 60.699C231.928 60.699 239.822 68.5812 239.822 78.3132C239.822 80.1516 239.535 81.9325 239.006 83.6101L257.448 87.0801L277.842 22.7705L187.91 74.0044L204.64 77.1527C205.237 67.9607 212.878 60.699 222.208 60.699Z" fill="#2EC38B"/>
<path fill-rule="evenodd" clip-rule="evenodd" d="M257.447 87.0684L244.969 137.716V225.948C245.968 225.063 246.934 224.156 247.864 223.225L260.756 210.333V154.503C260.756 144.737 265.547 138.13 272.028 134.694L257.447 87.0684Z" fill="#2EC38B"/>
<path fill-rule="evenodd" clip-rule="evenodd" d="M301.144 108.061C301.144 117.781 293.261 125.675 283.529 125.675C273.809 125.675 265.915 117.793 265.915 108.061C265.915 102.235 268.742 97.0762 273.096 93.8704L257.436 87.0684L272.016 134.706C285.506 127.559 306.291 134.166 306.291 154.515V164.798L313.415 157.674C322.423 148.666 335.464 136.832 345.598 125.365L301.017 105.992C301.098 106.682 301.144 107.371 301.144 108.061Z" fill="#2EC38B"/>
<path fill-rule="evenodd" clip-rule="evenodd" d="M301.017 106.004L345.599 125.376L323.848 44.1992L257.447 87.0799L273.108 93.882C276.027 91.7334 279.634 90.458 283.53 90.458C292.561 90.458 299.995 97.2486 301.017 106.004Z" fill="#2EC38B"/>
<path fill-rule="evenodd" clip-rule="evenodd" d="M257.447 87.0683L323.848 44.1991L277.842 22.7588L257.447 87.0683Z" fill="#2EC38B"/>
<path fill-rule="evenodd" clip-rule="evenodd" d="M277.842 22.7591L323.848 44.1994L361.006 46.0263C357.41 37.1216 352.01 28.7798 344.817 21.5986C343.565 20.3461 342.289 19.1512 340.968 18.0137L277.842 22.7591Z" fill="#2EC38B"/>
<path fill-rule="evenodd" clip-rule="evenodd" d="M277.843 22.7587L340.98 18.0134C314.151 -5.26538 274.223 -5.97776 246.59 15.8533L277.843 22.7587Z" fill="#2EC38B"/>
<path fill-rule="evenodd" clip-rule="evenodd" d="M361.006 46.0261L323.848 44.1992L345.598 125.376C350.665 119.643 354.997 114.001 357.732 108.842C368.084 89.4124 369.176 66.2371 361.006 46.0261Z" fill="#2EC38B"/>
<path fill-rule="evenodd" clip-rule="evenodd" d="M105.297 80.278L88.5442 35.7197C71.4585 64.1575 75.1353 101.822 99.5861 126.284L124.887 151.585L105.297 80.278Z" fill="#2EC38B"/>
<path fill-rule="evenodd" clip-rule="evenodd" d="M88.5449 35.7193L105.297 80.2775L147.121 16.485L115.926 9.25781C110.054 12.5095 104.55 16.6229 99.5868 21.5866C95.2551 25.9298 91.5783 30.6752 88.5449 35.7193Z" fill="#2EC38B"/>
<path fill-rule="evenodd" clip-rule="evenodd" d="M115.936 9.26903L147.131 16.4962L191.011 11.073C168.215 -3.05974 139.26 -3.65722 115.936 9.26903Z" fill="#2EC38B"/>
<path fill-rule="evenodd" clip-rule="evenodd" d="M147.131 16.485L187.909 73.9925L277.841 22.7586L246.577 15.8531C244.348 17.6226 242.188 19.5299 240.131 21.5981L222.207 39.5225L204.282 21.5981C200.192 17.5077 195.734 14.0032 191.011 11.0732L147.131 16.485Z" fill="#2EC38B"/>
<path fill-rule="evenodd" clip-rule="evenodd" d="M187.91 74.0043L147.132 16.4854L105.297 80.2779L187.91 74.0043Z" fill="#2EC38B"/>
<path fill-rule="evenodd" clip-rule="evenodd" d="M143.271 108.06C143.271 98.3397 151.153 90.4461 160.886 90.4461C170.606 90.4461 178.5 98.3282 178.5 108.06C178.5 117.792 170.618 125.674 160.886 125.674C151.153 125.674 143.271 117.792 143.271 108.06ZM187.91 74.0039L105.297 80.2775L148.534 135.177C161.977 127.295 183.636 133.74 183.636 154.514V210.333L193.678 220.375L187.91 74.0039Z" fill="#2EC38B"/>
<path fill-rule="evenodd" clip-rule="evenodd" d="M148.545 135.177L105.309 80.2773L124.899 151.584L138.113 164.798V154.514C138.113 145.161 142.49 138.716 148.545 135.177Z" fill="#2EC38B"/>
<path fill-rule="evenodd" clip-rule="evenodd" d="M187.91 74.0039L193.701 220.387L199.446 226.132V124.767C199.446 94.64 244.992 94.64 244.992 124.767V137.727L257.471 87.0795L239.029 83.6096C236.777 90.7448 230.113 95.9268 222.231 95.9268C212.51 95.9268 204.617 88.0447 204.617 78.3127C204.617 77.922 204.628 77.5314 204.651 77.1407L187.91 74.0039Z" fill="#2EC38B"/>
<path fill-rule="evenodd" clip-rule="evenodd" d="M222.208 60.699C231.928 60.699 239.822 68.5812 239.822 78.3132C239.822 80.1516 239.535 81.9325 239.006 83.6101L257.448 87.0801L277.842 22.7705L187.91 74.0044L204.64 77.1527C205.237 67.9607 212.878 60.699 222.208 60.699Z" fill="#2EC38B"/>
<path fill-rule="evenodd" clip-rule="evenodd" d="M257.447 87.0684L244.969 137.716V225.948C245.968 225.063 246.934 224.156 247.864 223.225L260.756 210.333V154.503C260.756 144.737 265.547 138.13 272.028 134.694L257.447 87.0684Z" fill="#2EC38B"/>
<path fill-rule="evenodd" clip-rule="evenodd" d="M301.144 108.061C301.144 117.781 293.261 125.675 283.529 125.675C273.809 125.675 265.915 117.793 265.915 108.061C265.915 102.235 268.742 97.0762 273.096 93.8704L257.436 87.0684L272.016 134.706C285.506 127.559 306.291 134.166 306.291 154.515V164.798L313.415 157.674C322.423 148.666 335.464 136.832 345.598 125.365L301.017 105.992C301.098 106.682 301.144 107.371 301.144 108.061Z" fill="#2EC38B"/>
<path fill-rule="evenodd" clip-rule="evenodd" d="M301.017 106.004L345.599 125.376L323.848 44.1992L257.447 87.0799L273.108 93.882C276.027 91.7334 279.634 90.458 283.53 90.458C292.561 90.458 299.995 97.2486 301.017 106.004Z" fill="#2EC38B"/>
<path fill-rule="evenodd" clip-rule="evenodd" d="M257.447 87.0683L323.848 44.1991L277.842 22.7588L257.447 87.0683Z" fill="#2EC38B"/>
<path fill-rule="evenodd" clip-rule="evenodd" d="M277.842 22.7591L323.848 44.1994L361.006 46.0263C357.41 37.1216 352.01 28.7798 344.817 21.5986C343.565 20.3461 342.289 19.1512 340.968 18.0137L277.842 22.7591Z" fill="#2EC38B"/>
<path fill-rule="evenodd" clip-rule="evenodd" d="M277.843 22.7587L340.98 18.0134C314.151 -5.26538 274.223 -5.97776 246.59 15.8533L277.843 22.7587Z" fill="#2EC38B"/>
<path fill-rule="evenodd" clip-rule="evenodd" d="M361.006 46.0261L323.848 44.1992L345.598 125.376C350.665 119.643 354.997 114.001 357.732 108.842C368.084 89.4124 369.176 66.2371 361.006 46.0261Z" fill="#2EC38B"/>
<path d="M0.248 300L16.992 260.584H17.356L34.1 300H27.132L15.328 270.1L19.696 267.136L6.228 300H0.248ZM10.752 285.96H23.7L25.78 291.108H8.932L10.752 285.96ZM52.7274 300.572C51.202 300.572 49.7287 300.243 48.3074 299.584C46.886 298.925 45.742 298.024 44.8754 296.88L45.1874 295.112V310.556H39.3634V277.588H44.4074L45.1874 282.684L44.6674 281.124C45.742 279.945 47.042 278.975 48.5674 278.212C50.1274 277.415 51.878 277.016 53.8194 277.016C55.8994 277.016 57.754 277.501 59.3834 278.472C61.0127 279.443 62.2954 280.829 63.2314 282.632C64.202 284.4 64.6874 286.497 64.6874 288.924C64.6874 291.351 64.1674 293.431 63.1274 295.164C62.0874 296.897 60.666 298.232 58.8634 299.168C57.0607 300.104 55.0154 300.572 52.7274 300.572ZM51.5834 295.944C52.866 295.944 54.0447 295.649 55.1194 295.06C56.2287 294.471 57.1127 293.656 57.7714 292.616C58.43 291.541 58.7594 290.345 58.7594 289.028C58.7594 287.641 58.4474 286.428 57.8234 285.388C57.234 284.313 56.4194 283.481 55.3794 282.892C54.374 282.268 53.2474 281.956 51.9994 281.956C50.8554 281.956 49.8327 282.147 48.9314 282.528C48.03 282.909 47.2674 283.464 46.6434 284.192C46.0194 284.885 45.534 285.717 45.1874 286.688V291.108C45.43 292.044 45.846 292.876 46.4354 293.604C47.0247 294.332 47.77 294.904 48.6714 295.32C49.5727 295.736 50.5434 295.944 51.5834 295.944ZM69.0278 288.768C69.0278 286.549 69.5478 284.556 70.5878 282.788C71.6278 280.985 73.0838 279.581 74.9558 278.576C76.8624 277.536 79.0118 277.016 81.4038 277.016C83.8651 277.016 85.9971 277.536 87.7998 278.576C89.6371 279.581 91.0584 280.985 92.0638 282.788C93.0691 284.556 93.5717 286.549 93.5717 288.768C93.5717 290.987 93.0691 292.997 92.0638 294.8C91.0584 296.568 89.6371 297.972 87.7998 299.012C85.9971 300.052 83.8478 300.572 81.3518 300.572C78.9944 300.572 76.8798 300.104 75.0078 299.168C73.1358 298.197 71.6624 296.828 70.5878 295.06C69.5478 293.292 69.0278 291.195 69.0278 288.768ZM74.9038 288.82C74.9038 290.103 75.1811 291.281 75.7358 292.356C76.2904 293.396 77.0531 294.228 78.0238 294.852C78.9944 295.476 80.0691 295.788 81.2478 295.788C82.5304 295.788 83.6398 295.476 84.5758 294.852C85.5464 294.228 86.2918 293.396 86.8118 292.356C87.3664 291.281 87.6438 290.103 87.6438 288.82C87.6438 287.503 87.3664 286.324 86.8118 285.284C86.2918 284.209 85.5464 283.36 84.5758 282.736C83.6398 282.112 82.5304 281.8 81.2478 281.8C80.0344 281.8 78.9424 282.129 77.9718 282.788C77.0358 283.412 76.2904 284.244 75.7358 285.284C75.1811 286.324 74.9038 287.503 74.9038 288.82ZM99.6915 278.004H105.516V300H99.6915V278.004ZM99.4315 270.152C99.4315 269.251 99.7782 268.505 100.472 267.916C101.2 267.327 101.98 267.032 102.812 267.032C103.644 267.032 104.389 267.327 105.048 267.916C105.741 268.505 106.088 269.251 106.088 270.152C106.088 271.053 105.741 271.799 105.048 272.388C104.389 272.943 103.644 273.22 102.812 273.22C101.98 273.22 101.2 272.925 100.472 272.336C99.7782 271.747 99.4315 271.019 99.4315 270.152ZM111.684 288.768C111.684 286.549 112.204 284.556 113.244 282.788C114.284 280.985 115.74 279.581 117.612 278.576C119.519 277.536 121.668 277.016 124.06 277.016C126.521 277.016 128.653 277.536 130.456 278.576C132.293 279.581 133.715 280.985 134.72 282.788C135.725 284.556 136.228 286.549 136.228 288.768C136.228 290.987 135.725 292.997 134.72 294.8C133.715 296.568 132.293 297.972 130.456 299.012C128.653 300.052 126.504 300.572 124.008 300.572C121.651 300.572 119.536 300.104 117.664 299.168C115.792 298.197 114.319 296.828 113.244 295.06C112.204 293.292 111.684 291.195 111.684 288.768ZM117.56 288.82C117.56 290.103 117.837 291.281 118.392 292.356C118.947 293.396 119.709 294.228 120.68 294.852C121.651 295.476 122.725 295.788 123.904 295.788C125.187 295.788 126.296 295.476 127.232 294.852C128.203 294.228 128.948 293.396 129.468 292.356C130.023 291.281 130.3 290.103 130.3 288.82C130.3 287.503 130.023 286.324 129.468 285.284C128.948 284.209 128.203 283.36 127.232 282.736C126.296 282.112 125.187 281.8 123.904 281.8C122.691 281.8 121.599 282.129 120.628 282.788C119.692 283.412 118.947 284.244 118.392 285.284C117.837 286.324 117.56 287.503 117.56 288.82ZM169.508 300.572C166.908 300.572 164.689 300.069 162.852 299.064C161.015 298.059 159.611 296.672 158.64 294.904C157.669 293.101 157.184 291.073 157.184 288.82C157.184 286.601 157.739 284.608 158.848 282.84C159.957 281.072 161.448 279.668 163.32 278.628C165.227 277.553 167.324 277.016 169.612 277.016C172.628 277.016 175.107 277.9 177.048 279.668C179.024 281.401 180.341 283.863 181 287.052L163.268 293.032L161.916 289.756L175.748 284.816L174.552 285.492C174.171 284.452 173.547 283.551 172.68 282.788C171.848 282.025 170.669 281.644 169.144 281.644C167.931 281.644 166.856 281.939 165.92 282.528C164.984 283.083 164.239 283.88 163.684 284.92C163.164 285.925 162.904 287.121 162.904 288.508C162.904 289.929 163.199 291.177 163.788 292.252C164.377 293.327 165.175 294.159 166.18 294.748C167.185 295.303 168.329 295.58 169.612 295.58C170.513 295.58 171.38 295.424 172.212 295.112C173.044 294.8 173.824 294.384 174.552 293.864L177.204 298.18C176.06 298.908 174.795 299.497 173.408 299.948C172.056 300.364 170.756 300.572 169.508 300.572ZM191.983 278.004L192.503 282.476L192.295 282.112C193.127 280.517 194.253 279.269 195.675 278.368C197.131 277.467 198.812 277.016 200.719 277.016C201.932 277.016 203.007 277.207 203.943 277.588C204.879 277.969 205.659 278.507 206.283 279.2C206.941 279.893 207.375 280.76 207.583 281.8L207.271 281.904C208.172 280.413 209.333 279.235 210.755 278.368C212.176 277.467 213.684 277.016 215.279 277.016C217.428 277.016 219.144 277.64 220.427 278.888C221.709 280.101 222.368 281.679 222.403 283.62V300H216.631V285.908C216.596 284.833 216.371 283.949 215.955 283.256C215.539 282.528 214.759 282.129 213.615 282.06C212.367 282.06 211.292 282.459 210.391 283.256C209.489 284.019 208.779 285.024 208.259 286.272C207.773 287.485 207.531 288.785 207.531 290.172V300H201.655V285.908C201.62 284.833 201.377 283.949 200.927 283.256C200.476 282.528 199.679 282.129 198.535 282.06C197.321 282.06 196.264 282.459 195.363 283.256C194.461 284.019 193.768 285.024 193.283 286.272C192.797 287.485 192.555 288.768 192.555 290.12V300H186.731V278.004H191.983ZM240.906 300.572C238.306 300.572 236.088 300.069 234.25 299.064C232.413 298.059 231.009 296.672 230.038 294.904C229.068 293.101 228.582 291.073 228.582 288.82C228.582 286.601 229.137 284.608 230.246 282.84C231.356 281.072 232.846 279.668 234.718 278.628C236.625 277.553 238.722 277.016 241.01 277.016C244.026 277.016 246.505 277.9 248.446 279.668C250.422 281.401 251.74 283.863 252.398 287.052L234.666 293.032L233.314 289.756L247.146 284.816L245.95 285.492C245.569 284.452 244.945 283.551 244.078 282.788C243.246 282.025 242.068 281.644 240.542 281.644C239.329 281.644 238.254 281.939 237.318 282.528C236.382 283.083 235.637 283.88 235.082 284.92C234.562 285.925 234.302 287.121 234.302 288.508C234.302 289.929 234.597 291.177 235.186 292.252C235.776 293.327 236.573 294.159 237.578 294.748C238.584 295.303 239.728 295.58 241.01 295.58C241.912 295.58 242.778 295.424 243.61 295.112C244.442 294.8 245.222 294.384 245.95 293.864L248.602 298.18C247.458 298.908 246.193 299.497 244.806 299.948C243.454 300.364 242.154 300.572 240.906 300.572ZM263.381 278.004L263.901 284.244L263.693 283.36C264.317 282.043 265.166 280.916 266.241 279.98C267.35 279.009 268.477 278.281 269.621 277.796C270.765 277.276 271.701 277.016 272.429 277.016L272.169 282.84C270.505 282.701 269.049 283.013 267.801 283.776C266.588 284.504 265.634 285.475 264.941 286.688C264.282 287.901 263.953 289.184 263.953 290.536V300H258.129V278.004H263.381ZM288.398 310.972C286.595 310.972 285.053 310.764 283.77 310.348C282.487 309.932 281.343 309.377 280.338 308.684C279.367 308.025 278.449 307.332 277.582 306.604L281.014 302.6C282.019 303.536 283.077 304.316 284.186 304.94C285.33 305.564 286.699 305.876 288.294 305.876C289.715 305.876 290.946 305.633 291.986 305.148C293.061 304.663 293.893 303.987 294.482 303.12C295.071 302.253 295.383 301.213 295.418 300V294.54L295.782 295.632C295.193 296.984 294.118 298.145 292.558 299.116C290.998 300.087 289.057 300.572 286.734 300.572C284.723 300.572 282.869 300.069 281.17 299.064C279.471 298.024 278.119 296.62 277.114 294.852C276.109 293.084 275.606 291.091 275.606 288.872C275.606 286.584 276.126 284.556 277.166 282.788C278.241 280.985 279.645 279.581 281.378 278.576C283.146 277.536 285.018 277.016 286.994 277.016C288.935 277.016 290.651 277.363 292.142 278.056C293.667 278.749 294.811 279.616 295.574 280.656L295.262 281.488L295.886 278.004H301.242V300.104C301.242 302.149 300.687 303.987 299.578 305.616C298.503 307.28 296.995 308.58 295.054 309.516C293.147 310.487 290.929 310.972 288.398 310.972ZM281.482 288.716C281.482 290.033 281.777 291.229 282.366 292.304C282.99 293.379 283.822 294.228 284.862 294.852C285.937 295.476 287.133 295.788 288.45 295.788C289.594 295.788 290.617 295.597 291.518 295.216C292.454 294.835 293.251 294.297 293.91 293.604C294.603 292.911 295.106 292.096 295.418 291.16V286.376C295.106 285.44 294.603 284.643 293.91 283.984C293.251 283.291 292.454 282.753 291.518 282.372C290.617 281.991 289.594 281.8 288.45 281.8C287.133 281.8 285.937 282.095 284.862 282.684C283.822 283.273 282.99 284.088 282.366 285.128C281.777 286.168 281.482 287.364 281.482 288.716ZM319.77 300.572C317.17 300.572 314.951 300.069 313.114 299.064C311.276 298.059 309.872 296.672 308.902 294.904C307.931 293.101 307.446 291.073 307.446 288.82C307.446 286.601 308 284.608 309.11 282.84C310.219 281.072 311.71 279.668 313.582 278.628C315.488 277.553 317.586 277.016 319.874 277.016C322.89 277.016 325.368 277.9 327.31 279.668C329.286 281.401 330.603 283.863 331.262 287.052L313.53 293.032L312.178 289.756L326.01 284.816L324.814 285.492C324.432 284.452 323.808 283.551 322.942 282.788C322.11 282.025 320.931 281.644 319.406 281.644C318.192 281.644 317.118 281.939 316.182 282.528C315.246 283.083 314.5 283.88 313.946 284.92C313.426 285.925 313.166 287.121 313.166 288.508C313.166 289.929 313.46 291.177 314.05 292.252C314.639 293.327 315.436 294.159 316.442 294.748C317.447 295.303 318.591 295.58 319.874 295.58C320.775 295.58 321.642 295.424 322.474 295.112C323.306 294.8 324.086 294.384 324.814 293.864L327.466 298.18C326.322 298.908 325.056 299.497 323.67 299.948C322.318 300.364 321.018 300.572 319.77 300.572ZM323.41 273.844L318.886 269.216L320.446 268.8L315.87 273.844H310.514L319.51 264.64H319.562L328.766 273.844H323.41ZM342.244 278.004L342.764 282.736L342.556 282.112C343.319 280.587 344.446 279.373 345.936 278.472C347.462 277.536 349.264 277.068 351.344 277.068C353.424 277.068 355.14 277.675 356.492 278.888C357.844 280.101 358.538 281.696 358.572 283.672V300H352.748V285.752C352.714 284.643 352.402 283.759 351.812 283.1C351.223 282.407 350.287 282.043 349.004 282.008C347.826 282.008 346.768 282.372 345.832 283.1C344.896 283.793 344.151 284.764 343.596 286.012C343.076 287.225 342.816 288.629 342.816 290.224V300H336.992V278.004H342.244ZM384.798 297.972C383.827 298.769 382.631 299.411 381.21 299.896C379.823 300.347 378.419 300.572 376.998 300.572C374.571 300.572 372.439 300.104 370.602 299.168C368.764 298.197 367.326 296.863 366.286 295.164C365.28 293.431 364.778 291.368 364.778 288.976C364.778 286.584 365.315 284.521 366.39 282.788C367.499 281.055 368.938 279.737 370.706 278.836C372.508 277.9 374.415 277.432 376.426 277.432C378.263 277.432 379.892 277.692 381.314 278.212C382.735 278.697 383.966 279.373 385.006 280.24L382.094 284.036C381.539 283.585 380.811 283.169 379.91 282.788C379.043 282.372 378.055 282.164 376.946 282.164C375.767 282.164 374.692 282.459 373.722 283.048C372.786 283.637 372.023 284.452 371.434 285.492C370.879 286.497 370.602 287.659 370.602 288.976C370.602 290.224 370.896 291.368 371.486 292.408C372.075 293.448 372.89 294.28 373.93 294.904C374.97 295.493 376.166 295.788 377.518 295.788C378.384 295.788 379.182 295.667 379.91 295.424C380.672 295.147 381.331 294.783 381.886 294.332L384.798 297.972ZM390.77 278.004H396.594V300H390.77V278.004ZM390.51 270.152C390.51 269.251 390.856 268.505 391.55 267.916C392.278 267.327 393.058 267.032 393.89 267.032C394.722 267.032 395.467 267.327 396.126 267.916C396.819 268.505 397.166 269.251 397.166 270.152C397.166 271.053 396.819 271.799 396.126 272.388C395.467 272.943 394.722 273.22 393.89 273.22C393.058 273.22 392.278 272.925 391.55 272.336C390.856 271.747 390.51 271.019 390.51 270.152ZM413.838 300.572C411.758 300.572 409.869 300.139 408.17 299.272C406.506 298.405 405.189 297.123 404.218 295.424C403.247 293.691 402.762 291.559 402.762 289.028C402.762 286.532 403.265 284.4 404.27 282.632C405.31 280.829 406.662 279.443 408.326 278.472C410.025 277.501 411.862 277.016 413.838 277.016C415.953 277.016 417.651 277.432 418.934 278.264C420.251 279.096 421.274 280.084 422.002 281.228L421.69 282.06L422.262 278.004H427.618V300H421.794V294.644L422.366 296.048C422.227 296.256 421.95 296.603 421.534 297.088C421.118 297.539 420.546 298.041 419.818 298.596C419.09 299.151 418.223 299.619 417.218 300C416.247 300.381 415.121 300.572 413.838 300.572ZM415.45 295.788C416.49 295.788 417.426 295.597 418.258 295.216C419.125 294.835 419.853 294.297 420.442 293.604C421.066 292.911 421.517 292.079 421.794 291.108V286.324C421.517 285.423 421.066 284.643 420.442 283.984C419.818 283.291 419.055 282.753 418.154 282.372C417.287 281.991 416.317 281.8 415.242 281.8C414.063 281.8 412.971 282.095 411.966 282.684C410.961 283.273 410.146 284.088 409.522 285.128C408.933 286.168 408.638 287.364 408.638 288.716C408.638 290.033 408.95 291.229 409.574 292.304C410.198 293.379 411.03 294.228 412.07 294.852C413.11 295.476 414.237 295.788 415.45 295.788ZM435.66 259.44H441.484V300H435.66V259.44Z" fill="#CF0808"/>
</svg>
